<?xml version="1.0" encoding="UTF-8" standalone="no"?>
<svg
   xmlns:dc="http://purl.org/dc/elements/1.1/"
   xmlns:cc="http://creativecommons.org/ns#"
   xmlns:rdf="http://www.w3.org/1999/02/22-rdf-syntax-ns#"
   xmlns:svg="http://www.w3.org/2000/svg"
   xmlns="http://www.w3.org/2000/svg"
   xmlns:sodipodi="http://sodipodi.sourceforge.net/DTD/sodipodi-0.dtd"
   xmlns:inkscape="http://www.inkscape.org/namespaces/inkscape"
   version="1.1"
   id="Roundel_of_the_Peruvian_Air_Force"
   width="600"
   height="600"
   inkscape:version="0.48.5 r10040"
   sodipodi:docname="Roundel_of_the_Peruvian_Air_Force.svg">
  <metadata
     id="metadata3622">
    <rdf:RDF>
      <cc:Work
         rdf:about="">
        <dc:format>image/svg+xml</dc:format>
        <dc:type
           rdf:resource="http://purl.org/dc/dcmitype/StillImage" />
        <dc:title></dc:title>
      </cc:Work>
    </rdf:RDF>
  </metadata>
  <defs
     id="defs3620" />
  <sodipodi:namedview
     pagecolor="#ffffff"
     bordercolor="#666666"
     borderopacity="1"
     objecttolerance="10"
     gridtolerance="10"
     guidetolerance="10"
     inkscape:pageopacity="0"
     inkscape:pageshadow="2"
     inkscape:window-width="1600"
     inkscape:window-height="838"
     id="namedview3618"
     showgrid="false"
     inkscape:zoom="0.985"
     inkscape:cx="141.62437"
     inkscape:cy="300"
     inkscape:window-x="-8"
     inkscape:window-y="-8"
     inkscape:window-maximized="1"
     inkscape:current-layer="Roundel_of_the_Peruvian_Air_Force" />
  <path
     d="M 300 0 C 134.31458 3.3306691e-014 -3.0763103e-016 134.31458 0 300 C 0 465.68542 134.31458 600 300 600 C 465.68542 600 600 465.68542 600 300 C 600 134.31458 465.68542 -6.6921013e-014 300 0 z M 300 100 C 410.45695 100 500 189.54305 500 300 C 500 410.45695 410.45695 500 300 500 C 189.54305 500 100 410.45695 100 300 C 100 189.54305 189.54305 100 300 100 z "
     id="circle3612"
     style="fill:#b2b2b2;fill-opacity:1" />
  <circle
     r="100"
     cx="300"
     cy="300"
     fill="#cc0000"
     id="circle3616"
     style="fill:#b2b2b2;fill-opacity:1" />
</svg>
