<?xml version="1.0" encoding="UTF-8" standalone="no"?>
<!DOCTYPE svg PUBLIC "-//W3C//DTD SVG 1.1//EN"
 "http://www.w3.org/Graphics/SVG/1.1/DTD/svg11.dtd">
<!-- Generated by graphviz version 2.38.0 (20140413.2041)
 -->
<!-- Title: %3 Pages: 1 -->
<svg width="500pt" height="116pt"
 viewBox="0.00 0.00 499.71 116.00" xmlns="http://www.w3.org/2000/svg" xmlns:xlink="http://www.w3.org/1999/xlink">
<g id="graph0" class="graph" transform="scale(1 1) rotate(0) translate(4 112)">
<title>%3</title>
<polygon fill="white" stroke="none" points="-4,4 -4,-112 495.714,-112 495.714,4 -4,4"/>
<!-- edge1&#45;dcu&#45;glasnevin.nn.hea.net -->
<g id="node1" class="node"><title>edge1&#45;dcu&#45;glasnevin.nn.hea.net</title>
<polygon fill="none" stroke="black" points="260.974,-72.0493 271.314,-72.1479 281.547,-72.2953 291.632,-72.4913 301.526,-72.7353 311.192,-73.0266 320.59,-73.3645 329.684,-73.7479 338.439,-74.1759 346.824,-74.6472 354.807,-75.1606 362.362,-75.7147 369.462,-76.308 376.085,-76.9388 382.213,-77.6054 387.827,-78.3059 392.914,-79.0385 397.463,-79.8012 401.466,-80.5918 404.919,-81.4082 407.818,-82.2481 410.164,-83.1093 411.961,-83.9894 413.214,-84.886 413.932,-85.7965 414.125,-86.7186 413.806,-87.6497 412.99,-88.5873 411.692,-89.5287 409.932,-90.4713 407.727,-91.4127 405.099,-92.3503 402.069,-93.2814 398.659,-94.2035 394.892,-95.114 390.79,-96.0106 386.376,-96.8907 381.674,-97.7519 376.705,-98.5918 371.492,-99.4082 366.056,-100.199 360.419,-100.961 354.6,-101.694 348.618,-102.395 342.49,-103.061 336.235,-103.692 329.867,-104.285 323.401,-104.839 316.85,-105.353 310.226,-105.824 303.54,-106.252 296.802,-106.636 290.021,-106.973 283.204,-107.265 276.359,-107.509 269.491,-107.705 262.607,-107.852 255.712,-107.951 248.81,-108 241.905,-108 235.003,-107.951 228.107,-107.852 221.223,-107.705 214.356,-107.509 207.511,-107.265 200.694,-106.973 193.913,-106.636 187.175,-106.252 180.489,-105.824 173.865,-105.353 167.314,-104.839 160.848,-104.285 154.479,-103.692 148.224,-103.061 142.097,-102.395 136.115,-101.694 130.295,-100.961 124.658,-100.199 119.223,-99.4082 114.01,-98.5918 109.041,-97.7519 104.338,-96.8907 99.9246,-96.0106 95.8225,-95.114 92.0551,-94.2035 88.645,-93.2814 85.615,-92.3503 82.9871,-91.4127 80.7826,-90.4713 79.022,-89.5287 77.7245,-88.5873 76.9081,-87.6497 76.5891,-86.7186 76.7823,-85.7965 77.5003,-84.886 78.7536,-83.9894 80.5505,-83.1093 82.8968,-82.2481 85.7959,-81.4082 89.2481,-80.5918 93.2514,-79.8012 97.8006,-79.0385 102.888,-78.3059 108.502,-77.6054 114.629,-76.9388 121.253,-76.308 128.353,-75.7147 135.907,-75.1606 143.89,-74.6472 152.275,-74.1759 161.031,-73.7479 170.125,-73.3645 179.523,-73.0266 189.188,-72.7353 199.083,-72.4913 209.167,-72.2953 219.4,-72.1479 229.74,-72.0493 240.144,-72 250.57,-72 260.974,-72.0493"/>
<text text-anchor="middle" x="245.357" y="-86.3" font-family="Times,serif" font-size="14.00">edge1&#45;dcu&#45;glasnevin.nn.hea.net</text>
</g>
<!-- edge1&#45;dcu.nn.hea.net -->
<g id="node2" class="node"><title>edge1&#45;dcu.nn.hea.net</title>
<polygon fill="none" stroke="black" points="129.296,-0.0493367 136.539,-0.147875 143.707,-0.295345 150.77,-0.491342 157.701,-0.735329 164.471,-1.02664 171.054,-1.36447 177.424,-1.7479 183.557,-2.17587 189.43,-2.64722 195.022,-3.16064 200.314,-3.71474 205.287,-4.308 209.927,-4.93879 214.218,-5.60537 218.151,-6.30593 221.714,-7.03854 224.901,-7.80119 227.705,-8.5918 230.123,-9.4082 232.154,-10.2481 233.797,-11.1093 235.056,-11.9894 235.934,-12.886 236.437,-13.7965 236.572,-14.7186 236.348,-15.6497 235.777,-16.5873 234.868,-17.5287 233.635,-18.4713 232.09,-19.4127 230.25,-20.3503 228.127,-21.2814 225.739,-22.2035 223.1,-23.114 220.226,-24.0106 217.135,-24.8907 213.841,-25.7519 210.36,-26.5918 206.709,-27.4082 202.902,-28.1988 198.953,-28.9615 194.877,-29.6941 190.687,-30.3946 186.395,-31.0612 182.013,-31.692 177.553,-32.2853 173.023,-32.8394 168.434,-33.3528 163.795,-33.8241 159.112,-34.2521 154.392,-34.6355 149.642,-34.9734 144.867,-35.2647 140.072,-35.5087 135.262,-35.7047 130.44,-35.8521 125.61,-35.9507 120.775,-36 115.939,-36 111.104,-35.9507 106.274,-35.8521 101.452,-35.7047 96.642,-35.5087 91.8473,-35.2647 87.0725,-34.9734 82.3225,-34.6355 77.6029,-34.2521 72.9197,-33.8241 68.28,-33.3528 63.6912,-32.8394 59.1619,-32.2853 54.7014,-31.692 50.3197,-31.0612 46.0279,-30.3946 41.8376,-29.6941 37.7615,-28.9615 33.8128,-28.1988 30.0054,-27.4082 26.354,-26.5918 22.8736,-25.7519 19.5797,-24.8907 16.4881,-24.0106 13.6147,-23.114 10.9758,-22.2035 8.58722,-21.2814 6.46484,-20.3503 4.6241,-19.4127 3.07994,-18.4713 1.84669,-17.5287 0.937854,-16.5873 0.365996,-15.6497 0.142596,-14.7186 0.277901,-13.7965 0.780797,-12.886 1.65868,-11.9894 2.91734,-11.1093 4.56085,-10.2481 6.59149,-9.4082 9.00966,-8.5918 11.8138,-7.80119 15.0003,-7.03854 18.5636,-6.30593 22.496,-5.60537 26.7879,-4.93879 31.4273,-4.308 36.4007,-3.71474 41.6922,-3.16064 47.2842,-2.64722 53.1572,-2.17587 59.2901,-1.7479 65.6602,-1.36447 72.2431,-1.02664 79.0133,-0.735329 85.9441,-0.491342 93.0077,-0.295345 100.175,-0.147875 107.418,-0.0493367 114.706,-1.81188e-13 122.009,-1.84741e-13 129.296,-0.0493367"/>
<text text-anchor="middle" x="118.357" y="-14.3" font-family="Times,serif" font-size="14.00">edge1&#45;dcu.nn.hea.net</text>
</g>
<!-- edge1&#45;dcu&#45;glasnevin.nn.hea.net&#45;&gt;edge1&#45;dcu.nn.hea.net -->
<g id="edge1" class="edge"><title>edge1&#45;dcu&#45;glasnevin.nn.hea.net&#45;&gt;edge1&#45;dcu.nn.hea.net</title>
<path fill="none" stroke="black" d="M214.614,-72.055C197.202,-62.4578 175.265,-50.3666 156.732,-40.1517"/>
<polygon fill="black" stroke="black" points="158.39,-37.0689 147.943,-35.307 155.011,-43.1994 158.39,-37.0689"/>
</g>
<!-- edge2&#45;dcu.nn.hea.net -->
<g id="node3" class="node"><title>edge2&#45;dcu.nn.hea.net</title>
<polygon fill="none" stroke="black" points="384.296,-0.0493367 391.539,-0.147875 398.707,-0.295345 405.77,-0.491342 412.701,-0.735329 419.471,-1.02664 426.054,-1.36447 432.424,-1.7479 438.557,-2.17587 444.43,-2.64722 450.022,-3.16064 455.314,-3.71474 460.287,-4.308 464.927,-4.93879 469.218,-5.60537 473.151,-6.30593 476.714,-7.03854 479.901,-7.80119 482.705,-8.5918 485.123,-9.4082 487.154,-10.2481 488.797,-11.1093 490.056,-11.9894 490.934,-12.886 491.437,-13.7965 491.572,-14.7186 491.348,-15.6497 490.777,-16.5873 489.868,-17.5287 488.635,-18.4713 487.09,-19.4127 485.25,-20.3503 483.127,-21.2814 480.739,-22.2035 478.1,-23.114 475.226,-24.0106 472.135,-24.8907 468.841,-25.7519 465.36,-26.5918 461.709,-27.4082 457.902,-28.1988 453.953,-28.9615 449.877,-29.6941 445.687,-30.3946 441.395,-31.0612 437.013,-31.692 432.553,-32.2853 428.023,-32.8394 423.434,-33.3528 418.795,-33.8241 414.112,-34.2521 409.392,-34.6355 404.642,-34.9734 399.867,-35.2647 395.072,-35.5087 390.262,-35.7047 385.44,-35.8521 380.61,-35.9507 375.775,-36 370.939,-36 366.104,-35.9507 361.274,-35.8521 356.452,-35.7047 351.642,-35.5087 346.847,-35.2647 342.072,-34.9734 337.323,-34.6355 332.603,-34.2521 327.92,-33.8241 323.28,-33.3528 318.691,-32.8394 314.162,-32.2853 309.701,-31.692 305.32,-31.0612 301.028,-30.3946 296.838,-29.6941 292.761,-28.9615 288.813,-28.1988 285.005,-27.4082 281.354,-26.5918 277.874,-25.7519 274.58,-24.8907 271.488,-24.0106 268.615,-23.114 265.976,-22.2035 263.587,-21.2814 261.465,-20.3503 259.624,-19.4127 258.08,-18.4713 256.847,-17.5287 255.938,-16.5873 255.366,-15.6497 255.143,-14.7186 255.278,-13.7965 255.781,-12.886 256.659,-11.9894 257.917,-11.1093 259.561,-10.2481 261.591,-9.4082 264.01,-8.5918 266.814,-7.80119 270,-7.03854 273.564,-6.30593 277.496,-5.60537 281.788,-4.93879 286.427,-4.308 291.401,-3.71474 296.692,-3.16064 302.284,-2.64722 308.157,-2.17587 314.29,-1.7479 320.66,-1.36447 327.243,-1.02664 334.013,-0.735329 340.944,-0.491342 348.008,-0.295345 355.175,-0.147875 362.418,-0.0493367 369.706,-1.81188e-13 377.009,-1.84741e-13 384.296,-0.0493367"/>
<text text-anchor="middle" x="373.357" y="-14.3" font-family="Times,serif" font-size="14.00">edge2&#45;dcu.nn.hea.net</text>
</g>
<!-- edge1&#45;dcu&#45;glasnevin.nn.hea.net&#45;&gt;edge2&#45;dcu.nn.hea.net -->
<g id="edge2" class="edge"><title>edge1&#45;dcu&#45;glasnevin.nn.hea.net&#45;&gt;edge2&#45;dcu.nn.hea.net</title>
<path fill="none" stroke="black" d="M276.342,-72.055C293.892,-62.4578 316.001,-50.3666 334.68,-40.1517"/>
<polygon fill="black" stroke="black" points="336.444,-43.176 343.539,-35.307 333.086,-37.0344 336.444,-43.176"/>
</g>
</g>
</svg>
